# xmcd
#
# Track frame offsets:
# 150
# 14518
# 25957
# 38113
# 55797
# 71379
# 93009
# 117819
# 129167
# 144582
# 163609
# 173294
# 187403
# 210055
# 236681
# 248479
# 257400
# 274436
#
# Disc length: 3779 seconds
#
# Revision: 0
# Processed by: cddbd v1.5.1PL0 Copyright (c) Steve Scherf et al.
# Submitted via: Audion 3.0.2 (http://www.panic.com/audion/)
#
DISCID=e70ec112
DTITLE=cc - cc
DYEAR=1900
DGENRE=
TTITLE0=Timber -  Odetta
TTITLE1=Been In The Pen - Odetta
TTITLE2=Special delivery blues - odetta
TTITLE3=Ooh Child - Beth Orton
TTITLE4=Ali's Waltz - Beth Orton
TTITLE5=She cries your name  - beth orton
TTITLE6=stolen car - beth orton
TTITLE7=why don you do right - peggy lee
TTITLE8=fever - peggy lee
TTITLE9=please send me someone to love - peggy
TTITLE10=route 66 patti page
TTITLE11=night and day - ella
TTITLE12=summertime - ella
TTITLE13=the man that got away
TTITLE14=mambo ital;iaon - rosey
TTITLE15=come on a my house - rosy
TTITLE16=stormy weather - lena
TTITLE17=just one of those things - lena
EXTD=
EXTT0=
EXTT1=
EXTT2=
EXTT3=
EXTT4=
EXTT5=
EXTT6=
EXTT7=
EXTT8=
EXTT9=
EXTT10=
EXTT11=
EXTT12=
EXTT13=
EXTT14=
EXTT15=
EXTT16=
EXTT17=
PLAYORDER=
